<svg xmlns="http://www.w3.org/2000/svg" width="48" height="48" viewBox="0 0 48 48">
    <g>
        <g>
            <path fill="#515f76" d="M43,15V5a5.006,5.006,0,0,0-5-5H10A5.006,5.006,0,0,0,5,5V43a5.006,5.006,0,0,0,5,5H38a5.006,5.006,0,0,0,5-5V19a1,1,0,0,0-2,0V43a3,3,0,0,1-3,3H10a3,3,0,0,1-3-3V5a3,3,0,0,1,3-3H38a3,3,0,0,1,3,3v9H38V6a1,1,0,0,0-1-1H11a1,1,0,0,0-1,1v9a1,1,0,0,0,1,1H42A1,1,0,0,0,43,15Zm-7-1H12V7H36Z"/>
            <path fill="#515f76" d="M18,21a2,2,0,0,0-2-2H14a2,2,0,0,0-2,2v2a2,2,0,0,0,2,2h2a2,2,0,0,0,2-2Zm-2,2-2,0V21h2Z"/>
            <path fill="#515f76" d="M27,21a2,2,0,0,0-2-2H23a2,2,0,0,0-2,2v2a2,2,0,0,0,2,2h2a2,2,0,0,0,2-2Zm-2,2-2,0V21h2Z"/>
            <path fill="#515f76" d="M36,21a2,2,0,0,0-2-2H32a2,2,0,0,0-2,2v2a2,2,0,0,0,2,2h2a2,2,0,0,0,2-2Zm-2,2-2,0V21h2Z"/>
            <path fill="#515f76" d="M18,30a2,2,0,0,0-2-2H14a2,2,0,0,0-2,2v2a2,2,0,0,0,2,2h2a2,2,0,0,0,2-2Zm-2,2-2,0V30h2Z"/>
            <path fill="#515f76" d="M27,30a2,2,0,0,0-2-2H23a2,2,0,0,0-2,2v2a2,2,0,0,0,2,2h2a2,2,0,0,0,2-2Zm-2,2-2,0V30h2Z"/>
            <path fill="#515f76" d="M36,30a2,2,0,0,0-2-2H32a2,2,0,0,0-2,2v2a2,2,0,0,0,2,2h2a2,2,0,0,0,2-2Zm-2,2-2,0V30h2Z"/>
            <path fill="#515f76" d="M16,37H14a2,2,0,0,0-2,2v2a2,2,0,0,0,2,2h2a2,2,0,0,0,2-2V39A2,2,0,0,0,16,37Zm0,4-2,0V39h2Z"/>
            <path fill="#515f76" d="M25,37H23a2,2,0,0,0-2,2v2a2,2,0,0,0,2,2h2a2,2,0,0,0,2-2V39A2,2,0,0,0,25,37Zm0,4-2,0V39h2Z"/>
            <path fill="#515f76" d="M34,37H32a2,2,0,0,0-2,2v2a2,2,0,0,0,2,2h2a2,2,0,0,0,2-2V39A2,2,0,0,0,34,37Zm0,4-2,0V39h2Z"/>
        </g>
    </g>
</svg>