<?xml version="1.0" encoding="iso-8859-1"?>
<!-- Uploaded to: SVG Repo, www.svgrepo.com, Generator: SVG Repo Mixer Tools -->
<!DOCTYPE svg PUBLIC "-//W3C//DTD SVG 1.1//EN" "http://www.w3.org/Graphics/SVG/1.1/DTD/svg11.dtd">
<svg height="800px" width="800px" version="1.1" id="Capa_1" xmlns="http://www.w3.org/2000/svg" xmlns:xlink="http://www.w3.org/1999/xlink" 
	 viewBox="0 0 270.37 270.37" xml:space="preserve">
<g>
	<path style="fill:#000002;" d="M64.174,0.313C28.788,0.313,0,29.101,0,64.487s28.788,64.174,64.174,64.174
		c35.386,0,64.174-28.788,64.174-64.174S99.56,0.313,64.174,0.313z M64.174,113.661C37.059,113.661,15,91.601,15,64.487
		s22.059-49.174,49.174-49.174c27.115,0,49.174,22.059,49.174,49.174S91.289,113.661,64.174,113.661z"/>
	<path style="fill:#000002;" d="M161.464,110.504c12.048,11.709,27.924,18.157,44.703,18.157c0.582,0,1.169-0.008,1.754-0.023
		c17.135-0.461,33.065-7.567,44.855-20.009c11.791-12.443,18.03-28.732,17.569-45.867c-0.452-16.83-7.349-32.561-19.419-44.292
		C238.462,6.355,221.884-0.141,204.471,0.336c-35.372,0.95-63.377,30.502-62.426,65.875
		C142.498,83.043,149.394,98.772,161.464,110.504z M204.874,15.331c0.45-0.012,0.902-0.018,1.351-0.018
		c26.827,0,48.406,21.018,49.128,47.853c0.354,13.13-4.428,25.611-13.463,35.146c-9.034,9.534-21.241,14.979-34.371,15.333
		c-0.45,0.012-0.902,0.018-1.351,0.018c-26.827,0-48.406-21.02-49.128-47.853C156.311,38.704,177.77,16.059,204.874,15.331z"/>
	<path style="fill:#000002;" d="M64.174,141.711C28.788,141.711,0,170.499,0,205.884c0,35.386,28.788,64.174,64.174,64.174
		c35.386,0,64.174-28.788,64.174-64.174C128.348,170.499,99.56,141.711,64.174,141.711z M64.174,255.058
		c-27.115,0-49.174-22.06-49.174-49.174c0-27.114,22.059-49.173,49.174-49.173c27.115,0,49.174,22.059,49.174,49.173
		C113.348,232.999,91.289,255.058,64.174,255.058z"/>
	<path style="fill:#000002;" d="M250.928,159.868c-12.466-12.113-28.983-18.623-46.458-18.134
		c-35.372,0.951-63.376,30.503-62.425,65.875c0.452,16.83,7.349,32.559,19.418,44.291c12.048,11.71,27.923,18.158,44.703,18.158
		c0.581,0,1.17-0.008,1.755-0.023c17.135-0.461,33.065-7.567,44.855-20.009c11.791-12.442,18.03-28.73,17.569-45.866
		C269.894,187.329,262.998,171.599,250.928,159.868z M241.889,239.708c-9.034,9.534-21.241,14.98-34.372,15.333
		c-27.439,0.732-49.743-20.553-50.478-47.834c-0.729-27.105,20.73-49.749,47.835-50.479c0.45-0.012,0.903-0.017,1.351-0.017
		c26.827,0,48.405,21.018,49.127,47.852C255.706,217.692,250.924,230.173,241.889,239.708z"/>
	<path style="fill:#000002;" d="M87.94,57.987H70.674V40.721c0-3.59-2.91-6.5-6.5-6.5c-3.59,0-6.5,2.91-6.5,6.5v17.266H40.408
		c-3.59,0-6.5,2.91-6.5,6.5c0,3.59,2.91,6.5,6.5,6.5h17.266v17.268c0,3.589,2.91,6.5,6.5,6.5c3.59,0,6.5-2.911,6.5-6.5V70.987H87.94
		c3.59,0,6.5-2.91,6.5-6.5C94.44,60.897,91.53,57.987,87.94,57.987z"/>
	<path style="fill:#000002;" d="M85.576,184.482c-2.538-2.537-6.654-2.538-9.192,0.001l-12.209,12.209l-12.209-12.209
		c-2.539-2.539-6.654-2.538-9.192-0.001c-2.539,2.539-2.539,6.654,0,9.192l12.209,12.21l-12.209,12.21
		c-2.539,2.538-2.539,6.653,0,9.192c1.269,1.269,2.933,1.903,4.596,1.903c1.664,0,3.327-0.635,4.596-1.904l12.209-12.209
		l12.209,12.209c1.27,1.27,2.933,1.904,4.596,1.904c1.663,0,3.327-0.635,4.596-1.903c2.539-2.539,2.539-6.654,0-9.192l-12.21-12.21
		l12.21-12.21C88.114,191.136,88.114,187.021,85.576,184.482z"/>
	<path style="fill:#000002;" d="M182.429,70.987h47.533c3.59,0,6.5-2.91,6.5-6.5c0-3.59-2.91-6.5-6.5-6.5h-47.533
		c-3.59,0-6.5,2.91-6.5,6.5C175.929,68.077,178.839,70.987,182.429,70.987z"/>
	<path style="fill:#000002;" d="M229.962,199.384h-47.533c-3.59,0-6.5,2.911-6.5,6.5c0,3.59,2.91,6.5,6.5,6.5h47.533
		c3.59,0,6.5-2.91,6.5-6.5C236.462,202.295,233.552,199.384,229.962,199.384z"/>
	<path style="fill:#000002;" d="M206.196,190.413c4.011,0,7.273-3.263,7.273-7.273c0-4.01-3.263-7.273-7.273-7.273
		c-4.011,0-7.273,3.264-7.273,7.273C198.922,187.15,202.185,190.413,206.196,190.413z M206.196,180.413
		c1.504,0,2.727,1.223,2.727,2.727c0,1.504-1.223,2.727-2.727,2.727s-2.727-1.223-2.727-2.727
		C203.469,181.635,204.692,180.413,206.196,180.413z"/>
	<path style="fill:#000002;" d="M206.196,221.448c-4.011,0-7.273,3.264-7.273,7.273c0,4.011,3.263,7.273,7.273,7.273
		c4.011,0,7.273-3.263,7.273-7.273C213.469,224.711,210.207,221.448,206.196,221.448z M206.196,231.448
		c-1.504,0-2.727-1.223-2.727-2.727c0-1.504,1.223-2.727,2.727-2.727s2.727,1.223,2.727,2.727
		C208.922,230.225,207.7,231.448,206.196,231.448z"/>
</g>
</svg>