<svg xmlns="http://www.w3.org/2000/svg" viewBox="0 0 96 96"><g id="icon"><path d="M53.11,89.68H13.28a6.61,6.61,0,0,1-6.6-6.6V8.85a6.61,6.61,0,0,1,6.6-6.6H68.63a6.61,6.61,0,0,1,6.6,6.6v45a.75.75,0,1,1-1.5,0v-45a5.11,5.11,0,0,0-5.1-5.1H13.28a5.11,5.11,0,0,0-5.1,5.1V83.08a5.11,5.11,0,0,0,5.1,5.1H53.11a.75.75,0,1,1,0,1.5Z"/><path d="M64.58,26.72H18a2.8,2.8,0,0,1-2.8-2.79V11.61A2.81,2.81,0,0,1,18,8.81H64.58a2.81,2.81,0,0,1,2.8,2.8V23.93A2.8,2.8,0,0,1,64.58,26.72ZM18,10.31a1.3,1.3,0,0,0-1.3,1.3V23.93A1.3,1.3,0,0,0,18,25.22H64.58a1.3,1.3,0,0,0,1.3-1.29V11.61a1.3,1.3,0,0,0-1.3-1.3Z"/><path d="M26.25,49.34h-8a3.1,3.1,0,0,1-3.09-3.09V39.37a3.1,3.1,0,0,1,3.09-3.1h8a3.1,3.1,0,0,1,3.09,3.1v6.88A3.1,3.1,0,0,1,26.25,49.34Zm-8-11.57a1.6,1.6,0,0,0-1.59,1.6v6.88a1.6,1.6,0,0,0,1.59,1.59h8a1.6,1.6,0,0,0,1.59-1.59V39.37a1.6,1.6,0,0,0-1.59-1.6Z"/><path d="M45.27,49.34h-8a3.1,3.1,0,0,1-3.09-3.09V39.37a3.1,3.1,0,0,1,3.09-3.1h8a3.1,3.1,0,0,1,3.09,3.1v6.88A3.1,3.1,0,0,1,45.27,49.34Zm-8-11.57a1.6,1.6,0,0,0-1.59,1.6v6.88a1.6,1.6,0,0,0,1.59,1.59h8a1.6,1.6,0,0,0,1.59-1.59V39.37a1.6,1.6,0,0,0-1.59-1.6Z"/><path d="M64.29,49.34h-8a3.1,3.1,0,0,1-3.09-3.09V39.37a3.1,3.1,0,0,1,3.09-3.1h8a3.1,3.1,0,0,1,3.09,3.1v6.88A3.1,3.1,0,0,1,64.29,49.34Zm-8-11.57a1.6,1.6,0,0,0-1.59,1.6v6.88a1.6,1.6,0,0,0,1.59,1.59h8a1.6,1.6,0,0,0,1.59-1.59V39.37a1.6,1.6,0,0,0-1.59-1.6Z"/><path d="M26.25,65.66h-8a3.1,3.1,0,0,1-3.09-3.09V55.69a3.09,3.09,0,0,1,3.09-3.09h8a3.09,3.09,0,0,1,3.09,3.09v6.88A3.1,3.1,0,0,1,26.25,65.66Zm-8-11.56a1.59,1.59,0,0,0-1.59,1.59v6.88a1.59,1.59,0,0,0,1.59,1.59h8a1.59,1.59,0,0,0,1.59-1.59V55.69a1.59,1.59,0,0,0-1.59-1.59Z"/><path d="M45.27,65.66h-8a3.1,3.1,0,0,1-3.09-3.09V55.69a3.09,3.09,0,0,1,3.09-3.09h8a3.09,3.09,0,0,1,3.09,3.09v6.88A3.1,3.1,0,0,1,45.27,65.66Zm-8-11.56a1.59,1.59,0,0,0-1.59,1.59v6.88a1.59,1.59,0,0,0,1.59,1.59h8a1.59,1.59,0,0,0,1.59-1.59V55.69a1.59,1.59,0,0,0-1.59-1.59Z"/><path d="M59.93,82H56.29a3.09,3.09,0,0,1-3.09-3.09V55.69a3.09,3.09,0,0,1,3.09-3.09h8a3.09,3.09,0,0,1,3.09,3.09v1.2a.75.75,0,0,1-1.5,0v-1.2a1.59,1.59,0,0,0-1.59-1.59h-8a1.59,1.59,0,0,0-1.59,1.59v23.2a1.59,1.59,0,0,0,1.59,1.59h3.64a.75.75,0,0,1,0,1.5Z"/><path d="M26.25,82h-8a3.09,3.09,0,0,1-3.09-3.09V72a3.1,3.1,0,0,1,3.09-3.09h8A3.1,3.1,0,0,1,29.34,72v6.88A3.09,3.09,0,0,1,26.25,82Zm-8-11.56A1.59,1.59,0,0,0,16.66,72v6.88a1.59,1.59,0,0,0,1.59,1.59h8a1.59,1.59,0,0,0,1.59-1.59V72a1.59,1.59,0,0,0-1.59-1.59Z"/><path d="M45.27,82h-8a3.09,3.09,0,0,1-3.09-3.09V72a3.1,3.1,0,0,1,3.09-3.09h8A3.1,3.1,0,0,1,48.36,72v6.88A3.09,3.09,0,0,1,45.27,82Zm-8-11.56A1.59,1.59,0,0,0,35.68,72v6.88a1.59,1.59,0,0,0,1.59,1.59h8a1.59,1.59,0,0,0,1.59-1.59V72a1.59,1.59,0,0,0-1.59-1.59Z"/><path d="M26.29,32.23H18.21a.75.75,0,1,1,0-1.5h8.08a.75.75,0,1,1,0,1.5Z"/><path d="M45.31,32.23H37.23a.75.75,0,0,1,0-1.5h8.08a.75.75,0,0,1,0,1.5Z"/><path d="M64.33,32.23H56.25a.75.75,0,0,1,0-1.5h8.08a.75.75,0,1,1,0,1.5Z"/><path d="M74.25,76.68A11.79,11.79,0,1,1,86,64.89,11.8,11.8,0,0,1,74.25,76.68Zm0-22.08A10.29,10.29,0,1,0,84.54,64.89,10.29,10.29,0,0,0,74.25,54.6Z"/><path d="M86.07,85.22H62.43A3.26,3.26,0,0,1,59.18,82V78.43a3.26,3.26,0,0,1,3.25-3.25H86.07a3.26,3.26,0,0,1,3.25,3.25V82A3.26,3.26,0,0,1,86.07,85.22ZM62.43,76.68a1.75,1.75,0,0,0-1.75,1.75V82a1.75,1.75,0,0,0,1.75,1.75H86.07A1.76,1.76,0,0,0,87.82,82V78.43a1.76,1.76,0,0,0-1.75-1.75Z"/><path d="M66,83.62a.76.76,0,0,1-.75-.75V77.53a.75.75,0,0,1,1.5,0v5.34A.75.75,0,0,1,66,83.62Z"/><path d="M74.25,83.62a.75.75,0,0,1-.75-.75V77.53a.75.75,0,0,1,1.5,0v5.34A.76.76,0,0,1,74.25,83.62Z"/><path d="M82.48,83.62a.75.75,0,0,1-.75-.75V77.53a.75.75,0,0,1,1.5,0v5.34A.76.76,0,0,1,82.48,83.62Z"/><path d="M79.25,93.75H55.61a3.26,3.26,0,0,1-3.25-3.25V87a3.25,3.25,0,0,1,3.25-3.24H79.25A3.25,3.25,0,0,1,82.5,87V90.5A3.26,3.26,0,0,1,79.25,93.75ZM55.61,85.22A1.74,1.74,0,0,0,53.86,87V90.5a1.75,1.75,0,0,0,1.75,1.75H79.25A1.75,1.75,0,0,0,81,90.5V87a1.75,1.75,0,0,0-1.75-1.74Z"/><path d="M59.2,92.05a.76.76,0,0,1-.75-.75V86.17a.75.75,0,0,1,1.5,0V91.3A.76.76,0,0,1,59.2,92.05Z"/><path d="M67.43,92.05a.75.75,0,0,1-.75-.75V86.17a.75.75,0,0,1,1.5,0V91.3A.76.76,0,0,1,67.43,92.05Z"/><path d="M75.66,92.05a.75.75,0,0,1-.75-.75V86.17a.75.75,0,1,1,1.5,0V91.3A.76.76,0,0,1,75.66,92.05Z"/><path d="M74.25,71a3.81,3.81,0,0,1-3.86-2.94.76.76,0,0,1,.62-.87.75.75,0,0,1,.86.62,2.3,2.3,0,0,0,2.38,1.69,2.46,2.46,0,0,0,2.28-1.33A1.83,1.83,0,0,0,75.81,66a4.27,4.27,0,0,0-1.59-.39,8.16,8.16,0,0,1-1.51-.28,3.39,3.39,0,0,1-2.36-3.15,3.7,3.7,0,0,1,3.9-3.45,3.85,3.85,0,0,1,3.82,2.73.75.75,0,0,1-.56.9.74.74,0,0,1-.9-.55,2.33,2.33,0,0,0-2.36-1.58,2.21,2.21,0,0,0-2.4,2,1.87,1.87,0,0,0,1.33,1.72,6.07,6.07,0,0,0,1.21.22,5.52,5.52,0,0,1,2.16.57,3.32,3.32,0,0,1,1.36,4.06A3.92,3.92,0,0,1,74.25,71Z"/><path d="M74.25,60.25a.75.75,0,0,1-.75-.75V58A.75.75,0,1,1,75,58V59.5A.75.75,0,0,1,74.25,60.25Z"/><path d="M74.25,72.52a.75.75,0,0,1-.75-.75V70.28a.75.75,0,0,1,1.5,0v1.49A.75.75,0,0,1,74.25,72.52Z"/></g></svg>